<svg width="16" height="16" viewBox="0 0 16 16" fill="none" xmlns="http://www.w3.org/2000/svg">
<path d="M13.3333 6.00065L12.0033 13.5647C11.9491 13.8736 11.7877 14.1535 11.5475 14.3551C11.3072 14.5568 11.0036 14.6673 10.69 14.6673H5.31C4.99636 14.6673 4.69275 14.5568 4.45255 14.3551C4.21235 14.1535 4.05093 13.8736 3.99667 13.5647L2.66667 6.00065M14 4.00065H10.25M10.25 4.00065V2.66732C10.25 2.3137 10.1095 1.97456 9.85948 1.72451C9.60943 1.47446 9.27029 1.33398 8.91667 1.33398H7.08333C6.72971 1.33398 6.39057 1.47446 6.14052 1.72451C5.89048 1.97456 5.75 2.3137 5.75 2.66732V4.00065M10.25 4.00065H5.75M2 4.00065H5.75" stroke="#FF4B4B" stroke-linecap="round" stroke-linejoin="round"/>
</svg>
