<svg width="20" height="20" viewBox="0 0 20 20" fill="none" xmlns="http://www.w3.org/2000/svg">
<path d="M10.0001 1.66602C14.6026 1.66602 18.3334 5.39685 18.3334 9.99935C18.3334 14.6018 14.6026 18.3327 10.0001 18.3327C5.39758 18.3327 1.66675 14.6018 1.66675 9.99935C1.66675 5.39685 5.39758 1.66602 10.0001 1.66602ZM10.0001 3.33268C8.23197 3.33268 6.53628 4.03506 5.28604 5.2853C4.03579 6.53555 3.33341 8.23124 3.33341 9.99935C3.33341 11.7675 4.03579 13.4632 5.28604 14.7134C6.53628 15.9636 8.23197 16.666 10.0001 16.666C11.7682 16.666 13.4639 15.9636 14.7141 14.7134C15.9644 13.4632 16.6667 11.7675 16.6667 9.99935C16.6667 8.23124 15.9644 6.53555 14.7141 5.2853C13.4639 4.03506 11.7682 3.33268 10.0001 3.33268ZM10.0001 4.99935C10.2042 4.99938 10.4012 5.07431 10.5537 5.20994C10.7063 5.34558 10.8037 5.53247 10.8276 5.73518L10.8334 5.83268V9.65435L13.0892 11.9102C13.2387 12.0601 13.3255 12.2614 13.3319 12.473C13.3384 12.6846 13.2641 12.8908 13.124 13.0496C12.984 13.2084 12.7888 13.3079 12.578 13.328C12.3673 13.3481 12.1567 13.2872 11.9892 13.1577L11.9109 13.0885L9.41091 10.5885C9.2814 10.4589 9.19822 10.2902 9.17425 10.1085L9.16675 9.99935V5.83268C9.16675 5.61167 9.25455 5.39971 9.41083 5.24343C9.56711 5.08715 9.77907 4.99935 10.0001 4.99935Z" fill="#767676"/>
</svg>
