<svg width="25" height="25" viewBox="0 0 25 25" fill="none" xmlns="http://www.w3.org/2000/svg">
<g clip-path="url(#clip0_206_2343)">
<path d="M21.4339 9.85703C21.5464 10.1629 21.4515 10.5039 21.2089 10.7219L19.6866 12.107C19.7253 12.3988 19.7464 12.6977 19.7464 13C19.7464 13.3023 19.7253 13.6012 19.6866 13.893L21.2089 15.2781C21.4515 15.4961 21.5464 15.8371 21.4339 16.143C21.2792 16.5613 21.0929 16.9621 20.8784 17.3488L20.7132 17.6336C20.4812 18.0203 20.221 18.3859 19.9362 18.7305C19.7288 18.9836 19.3843 19.068 19.0749 18.9695L17.1167 18.3473C16.6456 18.7094 16.1253 19.0117 15.5698 19.2402L15.1304 21.2477C15.0601 21.5676 14.814 21.8207 14.4905 21.8734C14.0054 21.9543 13.5062 21.9965 12.9964 21.9965C12.4866 21.9965 11.9874 21.9543 11.5023 21.8734C11.1788 21.8207 10.9327 21.5676 10.8624 21.2477L10.423 19.2402C9.86749 19.0117 9.34718 18.7094 8.87608 18.3473L6.9214 18.973C6.61202 19.0715 6.26749 18.9836 6.06007 18.734C5.7753 18.3895 5.51515 18.0238 5.28311 17.6371L5.11788 17.3523C4.90343 16.9656 4.7171 16.5648 4.56241 16.1465C4.44991 15.8406 4.54483 15.4996 4.78741 15.2816L6.30968 13.8965C6.271 13.6012 6.24991 13.3023 6.24991 13C6.24991 12.6977 6.271 12.3988 6.30968 12.107L4.78741 10.7219C4.54483 10.5039 4.44991 10.1629 4.56241 9.85703C4.7171 9.43867 4.90343 9.03789 5.11788 8.65117L5.28311 8.36641C5.51515 7.97969 5.7753 7.61406 6.06007 7.26953C6.26749 7.01641 6.61202 6.93203 6.9214 7.03047L8.8796 7.65273C9.35069 7.29063 9.871 6.98828 10.4265 6.75977L10.8659 4.75234C10.9362 4.43242 11.1823 4.1793 11.5058 4.12656C11.9909 4.04219 12.4901 4 12.9999 4C13.5097 4 14.0089 4.04219 14.4941 4.12305C14.8175 4.17578 15.0636 4.42891 15.1339 4.74883L15.5733 6.75625C16.1288 6.98477 16.6491 7.28711 17.1202 7.64922L19.0784 7.02695C19.3878 6.92852 19.7323 7.01641 19.9398 7.26602C20.2245 7.61055 20.4847 7.97617 20.7167 8.36289L20.8819 8.64766C21.0964 9.03437 21.2827 9.43516 21.4374 9.85352L21.4339 9.85703ZM12.9999 15.8125C13.7458 15.8125 14.4612 15.5162 14.9886 14.9887C15.5161 14.4613 15.8124 13.7459 15.8124 13C15.8124 12.2541 15.5161 11.5387 14.9886 11.0113C14.4612 10.4838 13.7458 10.1875 12.9999 10.1875C12.254 10.1875 11.5386 10.4838 11.0112 11.0113C10.4837 11.5387 10.1874 12.2541 10.1874 13C10.1874 13.7459 10.4837 14.4613 11.0112 14.9887C11.5386 15.5162 12.254 15.8125 12.9999 15.8125Z" fill="#767676"/>
</g>
<defs>
<clipPath id="clip0_206_2343">
<rect width="18" height="18" fill="white" transform="translate(4 4)"/>
</clipPath>
</defs>
</svg>
