<svg width="16" height="16" viewBox="0 0 16 16" fill="none" xmlns="http://www.w3.org/2000/svg">
<path d="M4.59044 2.95117H3.7714C3.33695 2.95117 2.92029 3.12376 2.61309 3.43096C2.30589 3.73816 2.1333 4.15482 2.1333 4.58927V11.9607C2.1333 12.3951 2.30589 12.8118 2.61309 13.119C2.92029 13.4262 3.33695 13.5988 3.7714 13.5988H11.1428C11.5773 13.5988 11.9939 13.4262 12.3011 13.119C12.6083 12.8118 12.7809 12.3951 12.7809 11.9607V11.1417" stroke="#767676" stroke-linecap="round" stroke-linejoin="round"/>
<path d="M10.3242 3.44335L12.2899 5.40904M13.1974 4.48189C13.4554 4.22383 13.6004 3.87382 13.6004 3.50887C13.6004 3.14392 13.4554 2.79391 13.1974 2.53585C12.9393 2.27779 12.5893 2.13281 12.2244 2.13281C11.8594 2.13281 11.5094 2.27779 11.2513 2.53585L5.73755 8.02997V9.99567H7.70325L13.1974 4.48189Z" stroke="#767676" stroke-linecap="round" stroke-linejoin="round"/>
</svg>
