<svg width="20" height="20" viewBox="0 0 20 20" fill="none" xmlns="http://www.w3.org/2000/svg">
<path d="M10.0001 9.58268C9.44755 9.58268 8.91764 9.36319 8.52694 8.97249C8.13624 8.58179 7.91675 8.05188 7.91675 7.49935C7.91675 6.94681 8.13624 6.41691 8.52694 6.02621C8.91764 5.63551 9.44755 5.41602 10.0001 5.41602C10.5526 5.41602 11.0825 5.63551 11.4732 6.02621C11.8639 6.41691 12.0834 6.94681 12.0834 7.49935C12.0834 7.77294 12.0295 8.04384 11.9248 8.29661C11.8201 8.54937 11.6667 8.77903 11.4732 8.97249C11.2798 9.16594 11.0501 9.3194 10.7973 9.4241C10.5446 9.5288 10.2737 9.58268 10.0001 9.58268ZM10.0001 1.66602C8.45299 1.66602 6.96925 2.2806 5.87529 3.37456C4.78133 4.46852 4.16675 5.95225 4.16675 7.49935C4.16675 11.8743 10.0001 18.3327 10.0001 18.3327C10.0001 18.3327 15.8334 11.8743 15.8334 7.49935C15.8334 5.95225 15.2188 4.46852 14.1249 3.37456C13.0309 2.2806 11.5472 1.66602 10.0001 1.66602Z" fill="#767676"/>
</svg>
